<?xml version="1.0" encoding="UTF-8" standalone="no"?>
<!-- Created with Inkscape (http://www.inkscape.org/) -->

<svg
   width="150"
   height="150.00002"
   viewBox="0 0 39.687498 39.687503"
   version="1.1"
   id="svg1"
   xml:space="preserve"
   xmlns="http://www.w3.org/2000/svg"
   xmlns:svg="http://www.w3.org/2000/svg"><defs
     id="defs1" /><path
     style="fill:#000000;stroke-width:0.0244409"
     d="M 18.034603,39.635427 C 14.001715,39.219672 10.302922,37.694222 7.2642747,35.193553 3.4639417,32.066059 0.9364338,27.612978 0.21845375,22.779938 -0.56855415,17.482187 0.78495675,12.203141 4.0516617,7.8294948 4.7627237,6.8774528 6.8794107,4.7612087 7.8316577,4.0502767 13.260759,-0.00302632 20.084584,-1.0784183 26.455078,1.1153526 c 0.448197,0.154338 1.373678,0.554463 2.056629,0.889162 2.250613,1.1029831 3.549371,2.0343541 5.357091,3.8417111 1.775895,1.7755231 2.794994,3.1898951 3.840347,5.3299553 0.919858,1.883174 1.531239,3.884845 1.83275,6.0006 0.192542,1.351027 0.194448,4.024295 0.0038,5.353841 -0.484935,3.382333 -1.810018,6.575293 -3.877353,9.342995 -0.715193,0.957486 -2.829851,3.071701 -3.787524,3.786744 -2.733054,2.040586 -5.805923,3.335093 -9.095581,3.831681 -1.187955,0.179324 -3.67413,0.254365 -4.750647,0.143385 z m -3.938218,-16.891428 -0.0198,-7.274241 H 11.670732 9.2648788 l -0.0198,7.274241 -0.0198,7.27424 h 2.4454522 2.445452 z m 7.564048,2.676918 0.02176,-4.597317 0.229573,-0.414387 c 0.310677,-0.560759 0.770118,-1.005215 1.283774,-1.24192 0.340645,-0.156978 0.553328,-0.197629 1.053173,-0.201299 0.548635,-0.004 0.683026,0.02438 1.08319,0.228983 0.559708,0.286163 0.900622,0.710697 1.139142,1.418512 0.172767,0.51261 0.175773,0.587635 0.199679,4.962612 l 0.0243,4.442138 h 2.402309 2.402285 v -4.72294 c 0,-5.15743 -0.01973,-5.44902 -0.451032,-6.667635 -0.838999,-2.370358 -2.832026,-3.639088 -5.468529,-3.481172 -1.434835,0.08594 -2.645767,0.682599 -3.496548,1.722839 l -0.401313,0.490689 -0.03881,-0.945131 -0.03879,-0.945131 -2.425262,-0.0205 -2.425262,-0.0205 v 7.294744 7.294744 h 2.442299 2.442299 z M 12.419437,13.385598 c 1.195875,-0.281413 1.936392,-1.166977 1.95558,-2.338578 0.01308,-0.798926 -0.182056,-1.292718 -0.725582,-1.8361252 -0.375183,-0.375115 -0.525486,-0.466637 -1.005973,-0.612544 -1.444978,-0.438811 -2.9132032,0.127788 -3.4541872,1.3330225 -0.19259,0.4290837 -0.210801,0.5437437 -0.18186,1.1453927 0.02662,0.553769 0.07076,0.739447 0.257048,1.081277 0.5792141,1.062816 1.8137832,1.543172 3.1549742,1.227555 z"
     id="path7" /></svg>
