<?xml version="1.0" encoding="UTF-8" standalone="no"?>
<!-- Created with Inkscape (http://www.inkscape.org/) -->

<svg
   width="149.80467"
   height="150.15115"
   viewBox="0 0 39.635818 39.727492"
   version="1.1"
   id="svg1"
   xml:space="preserve"
   xmlns="http://www.w3.org/2000/svg"
   xmlns:svg="http://www.w3.org/2000/svg"><defs
     id="defs1" /><path
     style="fill:#f5b82d;fill-opacity:1;stroke:none"
     d="M 18.691821,0.07985013 C 14.064691,0.68738964 9.8791217,1.9759926 6.3669923,5.2473743 -1.1402279,12.239993 -2.1756489,24.02064 4.1519633,32.138019 c 1.2702654,1.62956 2.8223148,3.065751 4.5404685,4.21163 1.8751932,1.25061 3.9341652,2.204973 6.1236572,2.754878 2.487001,0.624631 5.055801,0.787147 7.596435,0.453066 C 31.878892,38.312819 39.201672,30.166356 39.617725,20.665851 40.033822,11.164357 33.227459,2.4949892 23.962817,0.4957746 22.297579,0.13643431 20.394229,-0.1436763 18.691821,0.07985013 M 18.536792,1.6193774 c 1.936189,-0.2284491 4.016393,0.1002359 5.891113,0.5690401 2.070323,0.5177168 4.07562,1.4357218 5.813599,2.6753908 8.508477,6.0689467 10.326967,18.0747297 3.926152,26.3440347 -1.196323,1.545545 -2.674693,2.909584 -4.313725,3.976872 -2.436124,1.586332 -5.179097,2.553955 -8.061524,2.899802 -2.223675,0.266807 -4.500852,0.06504 -6.66626,-0.491764 C 13.024478,37.052336 11.003106,36.122997 9.2350343,34.861856 7.3953548,33.549643 5.7891749,31.927836 4.5341537,30.045123 -0.80995115,22.028191 1.1562606,10.967677 8.8474611,5.199765 11.73011,3.0379608 15.00581,2.0359926 18.536792,1.6193774 m 0.232544,2.0261465 C 16.448743,3.9502151 14.373239,4.3961396 12.258105,5.4538403 11.740203,5.7128241 9.7615238,7.0284607 11.328229,7.4546872 11.92919,7.6181804 12.534882,7.0679939 13.033252,6.8107654 14.139853,6.2396034 15.309656,5.8099682 16.521411,5.5237 c 3.669796,-0.8669586 7.634781,-0.1738852 10.852051,1.7669853 1.495466,0.9021652 2.808276,2.1005788 3.905876,3.4532907 4.492496,5.536677 4.170993,13.724526 -0.585906,18.991089 -1.7479,1.935174 -3.962134,3.33682 -6.420556,4.17969 C 16.375749,36.622289 7.1876705,31.386114 5.4368165,23.223834 4.869284,20.578063 4.9026827,17.816757 5.8007644,15.239825 6.1936571,14.112468 6.9600688,13.095718 7.3204943,11.98421 7.5146434,11.385478 7.0290107,10.700951 6.368129,10.956604 5.4871012,11.297417 4.9187981,13.187322 4.5998858,13.999591 3.2694192,17.388295 3.1185441,21.306676 4.2484979,24.774127 6.9672152,33.116968 16.043469,38.088508 24.50542,35.469176 31.092343,33.430243 35.750463,27.397499 36.052051,20.510822 36.387049,12.861194 31.028478,5.9309689 23.652759,4.0875263 22.118287,3.70401 20.34988,3.4380005 18.769336,3.6455239 M 8.5385989,8.2435917 C 7.6149798,8.6028256 8.2214117,10.003762 9.1502225,9.592261 9.9753293,9.226704 9.3886052,7.9129883 8.5385989,8.2435917 m 2.1692131,9.3216733 v 5.270996 c 0,0.833344 -0.16003,1.850821 0.162326,2.635498 0.687276,1.672961 3.033615,1.823936 4.038957,0.387573 0.528738,-0.755422 0.372082,-1.764395 0.372082,-2.635498 v -5.658569 c 0.670121,-7.3e-5 1.313434,-0.06161 1.860052,-0.495353 1.172889,-0.930691 1.144566,-2.839669 -0.07728,-3.71855 -0.672895,-0.48402 -1.461711,-0.436976 -2.247865,-0.436976 h -3.798218 c -0.808106,0 -1.5986347,-0.0049 -2.2467879,0.559109 -1.0736694,0.934368 -1.0410277,2.709514 0.076677,3.596417 0.5466163,0.433742 1.1899309,0.49528 1.8600519,0.495353 m 13.099976,4.108276 c 1.227184,0.572825 1.951575,0.645216 3.178101,0 0,1.204169 -0.349687,3.052721 0.320405,4.108277 1.006056,1.584778 3.541723,1.351392 4.147332,-0.465088 0.256989,-0.770825 0.105627,-1.753017 0.105627,-2.557984 V 17.64278 c 0,-0.9822 0.207161,-2.239918 -0.105627,-3.178101 -0.455382,-1.365886 -2.068653,-1.902761 -3.305018,-1.253813 -0.53388,0.280227 -0.894905,0.80039 -1.272292,1.253813 -0.485642,0.583491 -1.021709,1.149387 -1.44072,1.782837 -1.076576,-1.124864 -2.059303,-3.219053 -3.798218,-3.325835 -1.032565,-0.06341 -2.029033,0.633786 -2.322031,1.620513 -0.236784,0.797418 -0.08092,1.808562 -0.08092,2.635498 v 5.270996 c 0,0.959764 -0.212833,2.209409 0.195221,3.100586 0.763332,1.667095 3.208104,1.723303 4.104329,0.155029 0.606743,-1.061715 0.273814,-2.843327 0.273814,-4.030762 M 10.087994,14.498294 c 0.555099,-0.153977 1.285961,-0.03362 1.860053,-0.03362 1.212465,0 2.431375,-0.03683 3.643188,0.0012 0.494358,0.01551 0.990261,0.37087 0.860617,0.92892 -0.298769,1.286036 -2.260043,-0.03015 -2.60984,1.240352 -0.171387,0.622495 -0.03361,1.448804 -0.03361,2.092837 v 4.418335 c 0,0.642992 0.219982,1.915272 -0.620416,2.136497 -1.115251,0.293578 -1.007391,-1.254787 -1.007391,-1.903953 v -4.883421 c 0,-0.568896 0.176067,-1.499597 -0.09139,-2.013945 -0.483769,-0.930337 -1.74745,-0.05201 -2.3566004,-0.716772 -0.3837582,-0.418794 -0.1990695,-1.112629 0.3553944,-1.26643 m 11.239623,2.98e-4 c 0.593195,-0.156153 0.973411,0.428923 1.298311,0.818748 l 1.743602,2.092896 c 0.243359,0.291898 0.512134,0.708556 0.911036,0.793926 0.439656,0.09409 0.768897,-0.347392 1.013912,-0.638956 l 2.002938,-2.402895 c 0.36696,-0.43823 0.97973,-1.040115 1.524038,-0.447384 0.480513,0.523261 0.26502,1.652894 0.26502,2.307735 v 5.968628 c 0,0.664141 0.250925,2.062158 -0.620415,2.291527 -0.906615,0.238657 -1.007354,-0.828305 -1.007392,-1.438866 v -3.798217 c -3.3e-5,-0.503363 0.0032,-1.125105 -0.620176,-1.259015 -0.972101,-0.208808 -1.396241,1.633715 -2.247866,1.844382 -0.897479,0.222012 -1.459555,-1.175487 -2.022319,-1.640009 -0.337126,-0.278273 -0.747321,-0.281053 -1.044653,0.06352 -0.310867,0.360258 -0.188643,1.014588 -0.188643,1.45621 0,1.188509 0.0057,2.377179 -6e-5,3.565673 -0.0029,0.597112 -0.288016,1.492086 -1.083949,1.182638 -0.756427,-0.294091 -0.543799,-1.479771 -0.543799,-2.112813 v -6.356202 c 0,-0.664137 -0.250924,-2.062155 0.620415,-2.291526 z"
     id="path9" /></svg>
