<?xml version="1.0" encoding="UTF-8" standalone="no"?>
<!-- Created with Inkscape (http://www.inkscape.org/) -->

<svg
   width="149.86859"
   height="150.16229"
   viewBox="0 0 39.652729 39.730439"
   version="1.1"
   id="svg1"
   xml:space="preserve"
   xmlns="http://www.w3.org/2000/svg"
   xmlns:svg="http://www.w3.org/2000/svg"><defs
     id="defs1" /><path
     style="fill:#020202;stroke:none"
     d="M 18.708689,0.08355882 C 14.145123,0.68275182 10.044211,1.9318879 6.5388894,5.1022749 -0.66509867,11.617917 -2.1300234,22.695112 3.2118603,30.823978 c 1.3896833,2.114713 3.2023381,3.924539 5.2648953,5.381406 1.8798744,1.327831 4.0479714,2.318802 6.2786864,2.883653 2.513141,0.636366 5.104693,0.810107 7.673951,0.472265 9.47332,-1.245687 16.788791,-9.383107 17.2052,-18.891743 0.406332,-9.278499 -6.057836,-17.7828931 -15.03479,-20.02772618 -1.845148,-0.461409 -3.988721,-0.808058 -5.891114,-0.558274 M 31.421092,14.390873 H 8.166697 c 0.4113506,-0.730308 1.7740907,-1.258405 2.480469,-1.701436 2.114825,-1.32639 4.241282,-2.634571 6.356201,-3.9610201 l 1.937866,-1.203511 c 0.240941,-0.150062 0.555687,-0.432074 0.852662,-0.43303 0.29854,-9.6e-4 0.612263,0.273392 0.852661,0.424895 l 1.937866,1.211646 c 2.114876,1.3264231 4.241249,2.6345491 6.356201,3.9610201 0.702881,0.440839 2.079686,0.970722 2.480469,1.701436 m -23.4094243,0.07751 c 2.9151913,1.616884 5.6964563,3.541174 8.5266113,5.303833 0.839207,0.522668 2.306781,1.889176 3.33313,1.81005 1.078967,-0.08318 2.428469,-1.344865 3.33313,-1.905508 1.811373,-1.122552 3.617106,-2.25424 5.426025,-3.380859 0.978197,-0.609234 1.964844,-1.37093 3.023072,-1.827516 v 9.456787 c 0,1.19202 0.310905,2.768083 -0.643383,3.672735 -0.799519,0.757934 -1.987408,0.590571 -2.999806,0.590571 h -6.821289 -8.449096 c -1.12336,0 -2.699392,0.282878 -3.7206442,-0.264602 C 7.8360864,27.289504 7.934153,26.082158 7.934153,24.932861 v -7.286377 c 0,-0.905527 -0.271882,-2.345447 0.077515,-3.178101 z"
     id="path7" /></svg>
